<?xml version="1.0" encoding="UTF-8" standalone="no"?>
<!-- Created with Inkscape (http://www.inkscape.org/) -->

<svg
   width="6cm"
   height="6cm"
   viewBox="0 0 60 60"
   version="1.1"
   id="svg252"
   inkscape:version="1.2.2 (b0a8486, 2022-12-01)"
   sodipodi:docname="matching_multiple.svg"
   inkscape:export-filename="matching_multiple.png"
   inkscape:export-xdpi="96"
   inkscape:export-ydpi="96"
   xmlns:inkscape="http://www.inkscape.org/namespaces/inkscape"
   xmlns:sodipodi="http://sodipodi.sourceforge.net/DTD/sodipodi-0.dtd"
   xmlns="http://www.w3.org/2000/svg"
   xmlns:svg="http://www.w3.org/2000/svg">
  <sodipodi:namedview
     id="namedview254"
     pagecolor="#ffffff"
     bordercolor="#000000"
     borderopacity="0.25"
     inkscape:showpageshadow="2"
     inkscape:pageopacity="0.0"
     inkscape:pagecheckerboard="0"
     inkscape:deskcolor="#d1d1d1"
     inkscape:document-units="mm"
     showgrid="true"
     inkscape:zoom="5.9616773"
     inkscape:cx="130.58406"
     inkscape:cy="87.139906"
     inkscape:window-width="1920"
     inkscape:window-height="1016"
     inkscape:window-x="0"
     inkscape:window-y="36"
     inkscape:window-maximized="1"
     inkscape:current-layer="layer1">
    <inkscape:grid
       type="xygrid"
       id="grid1157"
       units="mm"
       spacingx="1"
       spacingy="1" />
  </sodipodi:namedview>
  <defs
     id="defs249">
    <clipPath
       id="clipPath7740">
      <path
         clip-rule="nonzero"
         d="M 0,0 H 6 V 7.472656 H 0 Z m 0,0"
         id="path2456" />
    </clipPath>
    <clipPath
       id="clipPath4697">
      <path
         clip-rule="nonzero"
         d="M 5,3 H 9 V 9.148438 H 5 Z m 0,0"
         id="path3753" />
    </clipPath>
    <clipPath
       id="clipPath3279">
      <path
         clip-rule="nonzero"
         d="m 6,3 h 4 v 7.976562 H 6 Z m 0,0"
         id="path1117" />
    </clipPath>
    <clipPath
       id="clipPath2631">
      <path
         clip-rule="nonzero"
         d="M 0,0 H 7 V 8.964844 H 0 Z m 0,0"
         id="path189" />
    </clipPath>
    <clipPath
       id="clipPath5420">
      <path
         clip-rule="nonzero"
         d="m 8,1 h 4 V 8.964844 H 8 Z m 0,0"
         id="path9410" />
    </clipPath>
    <clipPath
       id="clipPath1617">
      <path
         clip-rule="nonzero"
         d="m 5,3 h 5 v 7.976562 H 5 Z m 0,0"
         id="path7804" />
    </clipPath>
  </defs>
  <g
     inkscape:label="Layer 1"
     inkscape:groupmode="layer"
     id="layer1">
    <rect
       style="fill:#000000;fill-opacity:0;stroke:#000000;stroke-width:0.481834"
       id="rect427"
       width="59.677738"
       height="59.677738"
       x="0.240917"
       y="0.240917" />
    <g
       id="g1267"
       transform="translate(10.089721,-5.8147151)" />
    <path
       style="fill:#000000;fill-opacity:0;stroke:#000000;stroke-width:0.264583;stroke-opacity:1"
       d="m 20.973346,31.907665 0.306296,-4.843457"
       id="path1465" />
    <path
       style="fill:#000000;fill-opacity:0;stroke:#000000;stroke-width:0.264583;stroke-opacity:1"
       d="m 40.001131,35.992509 -1.85879,1.555199"
       id="path1683" />
    <path
       style="fill:#000000;fill-opacity:0.95502645;stroke:#000000;stroke-width:0.264583;stroke-opacity:0.99470901"
       d="m 40.399581,37.541284 c 0,0 -2.61812,-3.625977 -6.785872,-5.629518 C 29.445957,29.908229 19.580337,28.08424 19.580337,28.08424 l -0.02665,4.907665 c 0,0 4.723788,-0.604377 7.270256,-0.604377 2.546469,0 4.352486,0.431903 7.999542,2.156642 3.647057,1.72474 3.708701,4.538595 3.708701,4.538595 z"
       id="path1687"
       sodipodi:nodetypes="csccsscc" />
    <path
       style="fill:#000000;fill-opacity:0.986772;stroke:#000000;stroke-width:0.264583;stroke-opacity:0.994709"
       d="m 19.814215,24.454933 c 0,0 0.387847,-4.848386 6.764368,-6.610468 C 32.955105,16.082381 36.8211,15.523952 36.8211,15.523952 l -0.430625,-2.381073 c 0,0 -8.792753,0 -12.698641,2.73191 -3.905892,2.73191 -5.473274,7.221357 -5.473274,7.221357 z"
       id="path4910"
       sodipodi:nodetypes="csccscc" />
    <path
       style="fill:#0008ff;fill-opacity:0.50529099;stroke:#0002ff;stroke-width:0.264583;stroke-opacity:0.99470901"
       d="m 36.251343,11.98186 c 0,0 -9.795163,-1.249367 -13.312965,1.749113 -3.517802,2.998481 -6.866586,8.463209 -6.866586,8.463209 l 3.724899,11.811467 c 0,0 3.191662,-0.992261 6.340067,-0.363672 3.148404,0.628589 9.845011,2.249069 9.845011,2.249069 l 2.07568,-2.249069 c 0,0 2.028573,-3.206195 -10.121602,-6.186323 -2.576096,-0.63185 -6.524176,0.118305 -6.524177,-2.18053 0,0 -0.341695,-3.024924 1.126911,-3.748101 0.860195,-0.423581 7.995949,-3.598177 7.995949,-3.598177 l 7.522919,-1.699139 z"
       id="path5776"
       sodipodi:nodetypes="csccsccsssccc" />
    <circle
       style="fill:#000000;fill-opacity:1;stroke:#000000;stroke-width:0.399455"
       id="path591"
       cx="14.382792"
       cy="29.219912"
       r="7.2258973" />
    <circle
       style="fill:#000000;fill-opacity:0.96296293;stroke:#000000;stroke-width:0.278265"
       id="path589"
       cx="41.786907"
       cy="13.142879"
       r="5.3964319" />
    <ellipse
       style="fill:#000000;fill-opacity:1;stroke:#000000;stroke-width:0.453845"
       id="path591-5"
       cx="41.786907"
       cy="40.833187"
       rx="8.4061871"
       ry="8.0179529" />
    <g
       inkscape:label=""
       transform="translate(15.927492,11.591435)"
       id="g2930">
      <g
         fill="#000000"
         fill-opacity="1"
         id="g2920"
         transform="matrix(0.352778,0,0,0.352778,-0.110243,0.0510645)">
        <g
           id="g2918"
           transform="translate(0,8.8240004)">
          <path
             d="m 2.890625,-5.765625 h 1.3125 c 0.265625,0 0.421875,0 0.421875,-0.265625 C 4.625,-6.1875 4.53125,-6.1875 4.25,-6.1875 H 2.984375 l 0.53125,-2.09375 c 0.0625,-0.203125 0.0625,-0.21875 0.0625,-0.328125 0,-0.21875 -0.1875,-0.359375 -0.375,-0.359375 -0.125,0 -0.453125,0.046875 -0.5625,0.5 l -0.5625,2.28125 h -1.34375 c -0.296875,0 -0.421875,0 -0.421875,0.28125 0,0.140625 0.109375,0.140625 0.375,0.140625 h 1.28125 l -0.953125,3.78125 c -0.109375,0.5 -0.15625,0.65625 -0.15625,0.84375 0,0.671875 0.46875,1.28125 1.28125,1.28125 1.4375,0 2.21875,-2.09375 2.21875,-2.1875 0,-0.09375 -0.0625,-0.140625 -0.140625,-0.140625 -0.03125,0 -0.09375,0 -0.109375,0.0625 -0.015625,0.015625 -0.03125,0.03125 -0.140625,0.265625 -0.296875,0.71875 -0.953125,1.71875 -1.78125,1.71875 -0.4375,0 -0.46875,-0.359375 -0.46875,-0.671875 0,-0.015625 0,-0.296875 0.046875,-0.46875 z m 0,0"
             id="path2916" />
        </g>
      </g>
      <g
         clip-path="url(#clipPath3279)"
         id="g2928"
         transform="matrix(0.352778,0,0,0.352778,-0.110243,0.0510645)">
        <g
           fill="#000000"
           fill-opacity="1"
           id="g2926">
          <g
             id="g2924"
             transform="translate(5.073,10.976)">
            <path
               d="m 3.203125,-6.984375 c 0,-0.25 0,-0.28125 -0.25,-0.28125 C 2.28125,-6.5625 1.3125,-6.5625 0.96875,-6.5625 v 0.328125 c 0.21875,0 0.859375,0 1.4375,-0.28125 v 5.65625 c 0,0.390625 -0.046875,0.515625 -1.015625,0.515625 H 1.03125 V 0 c 0.390625,-0.03125 1.328125,-0.03125 1.765625,-0.03125 0.4375,0 1.390625,0 1.765625,0.03125 V -0.34375 H 4.21875 c -0.984375,0 -1.015625,-0.109375 -1.015625,-0.515625 z m 0,0"
               id="path2922" />
          </g>
        </g>
      </g>
    </g>
    <g
       inkscape:label=""
       transform="translate(25.317073,22.18105)"
       id="g3045"
       style="fill:#0000ff">
      <g
         clip-path="url(#clipPath2631)"
         id="g24"
         transform="matrix(0.352778,0,0,0.352778,0.15434,0.0536663)"
         style="fill:#0000ff">
        <g
           fill="#000000"
           fill-opacity="1"
           id="g22"
           style="fill:#0000ff">
          <g
             id="use20"
             transform="translate(0,6.1760001)"
             style="fill:#0000ff">
            <path
               d="M 0.609375,1.828125 C 0.515625,2.25 0.453125,2.359375 -0.125,2.359375 c -0.171875,0 -0.3125,0 -0.3125,0.28125 0,0.03125 0,0.140625 0.171875,0.140625 0.171875,0 0.375,-0.03125 0.5625,-0.03125 h 0.625 c 0.296875,0 1.03125,0.03125 1.328125,0.03125 0.09375,0 0.265625,0 0.265625,-0.25 0,-0.171875 -0.109375,-0.171875 -0.34375,-0.171875 C 1.5,2.359375 1.46875,2.265625 1.46875,2.15625 c 0,-0.171875 0.640625,-2.640625 0.71875,-2.96875 0.171875,0.390625 0.546875,0.953125 1.296875,0.953125 1.625,0 3.375,-2.109375 3.375,-4.21875 0,-1.3125 -0.75,-2.25 -1.828125,-2.25 -0.921875,0 -1.6875,0.890625 -1.84375,1.09375 -0.125,-0.71875 -0.671875,-1.09375 -1.25,-1.09375 -0.421875,0 -0.75,0.203125 -1.015625,0.75 C 0.65625,-5.0625 0.453125,-4.1875 0.453125,-4.125 c 0,0.046875 0.0625,0.125 0.15625,0.125 0.125,0 0.140625,-0.015625 0.21875,-0.34375 0.21875,-0.84375 0.484375,-1.6875 1.0625,-1.6875 0.328125,0 0.453125,0.21875 0.453125,0.65625 0,0.34375 -0.046875,0.484375 -0.109375,0.734375 z M 3.09375,-4.46875 C 3.203125,-4.875 3.59375,-5.296875 3.828125,-5.5 3.984375,-5.640625 4.453125,-6.03125 5,-6.03125 c 0.640625,0 0.921875,0.625 0.921875,1.375 0,0.6875 -0.40625,2.296875 -0.765625,3.046875 -0.34375,0.78125 -1.015625,1.46875 -1.671875,1.46875 -0.96875,0 -1.125,-1.234375 -1.125,-1.296875 0,-0.046875 0.015625,-0.15625 0.03125,-0.21875 z m 0,0"
               id="path36"
               style="fill:#0000ff" />
          </g>
        </g>
      </g>
      <g
         clip-path="url(#clipPath5420)"
         id="g30"
         transform="matrix(0.352778,0,0,0.352778,0.15434,0.0536663)"
         style="fill:#0000ff">
        <g
           fill="#000000"
           fill-opacity="1"
           id="g28"
           style="fill:#0000ff">
          <g
             id="use26"
             transform="translate(7.0500002,8.3280001)"
             style="fill:#0000ff">
            <path
               d="m 3.203125,-6.984375 c 0,-0.25 0,-0.28125 -0.25,-0.28125 C 2.28125,-6.5625 1.3125,-6.5625 0.96875,-6.5625 v 0.328125 c 0.21875,0 0.859375,0 1.4375,-0.28125 v 5.65625 c 0,0.390625 -0.046875,0.515625 -1.015625,0.515625 H 1.03125 V 0 c 0.390625,-0.03125 1.328125,-0.03125 1.765625,-0.03125 0.4375,0 1.390625,0 1.765625,0.03125 V -0.34375 H 4.21875 c -0.984375,0 -1.015625,-0.109375 -1.015625,-0.515625 z m 0,0"
               id="path40"
               style="fill:#0000ff" />
          </g>
        </g>
      </g>
    </g>
    <g
       inkscape:label=""
       transform="translate(25.317072,34.820752)"
       id="g3193">
      <g
         fill="#000000"
         fill-opacity="1"
         id="g3183"
         transform="matrix(0.352778,0,0,0.352778,-0.110243,0.0510645)">
        <g
           id="g3181"
           transform="translate(0,8.8240004)">
          <path
             d="m 2.890625,-5.765625 h 1.3125 c 0.265625,0 0.421875,0 0.421875,-0.265625 C 4.625,-6.1875 4.53125,-6.1875 4.25,-6.1875 H 2.984375 l 0.53125,-2.09375 c 0.0625,-0.203125 0.0625,-0.21875 0.0625,-0.328125 0,-0.21875 -0.1875,-0.359375 -0.375,-0.359375 -0.125,0 -0.453125,0.046875 -0.5625,0.5 l -0.5625,2.28125 h -1.34375 c -0.296875,0 -0.421875,0 -0.421875,0.28125 0,0.140625 0.109375,0.140625 0.375,0.140625 h 1.28125 l -0.953125,3.78125 c -0.109375,0.5 -0.15625,0.65625 -0.15625,0.84375 0,0.671875 0.46875,1.28125 1.28125,1.28125 1.4375,0 2.21875,-2.09375 2.21875,-2.1875 0,-0.09375 -0.0625,-0.140625 -0.140625,-0.140625 -0.03125,0 -0.09375,0 -0.109375,0.0625 -0.015625,0.015625 -0.03125,0.03125 -0.140625,0.265625 -0.296875,0.71875 -0.953125,1.71875 -1.78125,1.71875 -0.4375,0 -0.46875,-0.359375 -0.46875,-0.671875 0,-0.015625 0,-0.296875 0.046875,-0.46875 z m 0,0"
             id="path3179" />
        </g>
      </g>
      <g
         clip-path="url(#clipPath1617)"
         id="g3191"
         transform="matrix(0.352778,0,0,0.352778,-0.110243,0.0510645)">
        <g
           fill="#000000"
           fill-opacity="1"
           id="g3189">
          <g
             id="g3187"
             transform="translate(5.073,10.976)">
            <path
               d="m 1.390625,-0.84375 1.15625,-1.125 c 1.703125,-1.5 2.34375,-2.09375 2.34375,-3.171875 0,-1.25 -0.96875,-2.125 -2.3125,-2.125 -1.21875,0 -2.03125,1 -2.03125,1.96875 0,0.625 0.546875,0.625 0.578125,0.625 0.1875,0 0.5625,-0.140625 0.5625,-0.578125 0,-0.296875 -0.1875,-0.578125 -0.578125,-0.578125 -0.078125,0 -0.109375,0 -0.140625,0.015625 0.25,-0.703125 0.84375,-1.109375 1.46875,-1.109375 1,0 1.46875,0.875 1.46875,1.78125 0,0.859375 -0.546875,1.734375 -1.140625,2.40625 l -2.09375,2.328125 c -0.125,0.125 -0.125,0.140625 -0.125,0.40625 H 4.59375 L 4.890625,-1.890625 H 4.625 C 4.5625,-1.578125 4.5,-1.09375 4.390625,-0.921875 4.3125,-0.84375 3.59375,-0.84375 3.34375,-0.84375 Z m 0,0"
               id="path3185" />
          </g>
        </g>
      </g>
    </g>
  </g>
</svg>
